<svg xmlns="http://www.w3.org/2000/svg" viewBox="0 0 550 460" aria-hidden="true">
    <circle cx="302" cy="221" r="186" fill="#D5C9E5"/>
    <path d="M171 391V176a79 79 0 0 1 158 0v215" fill="#B29DCC"/>
    <path d="M209 391V181a41 41 0 0 1 82 0v210" fill="#E9DEED"/>
    <path d="M100 351v-50q0-54 54-54h22" fill="none" stroke="#4F796C" stroke-width="35" stroke-linecap="round"/>
    <path d="M102 351v-50q0-54 54-54h20" fill="none" stroke="#A9C0A7" stroke-width="2" stroke-linecap="round" class="flow-line"/>
    <path d="M287 267v67q0 46 46 46h62q34 0 34-34v-40" fill="none" stroke="#EF825F" stroke-width="31" stroke-linecap="round"/>
    <path d="M287 267v67q0 46 46 46h62q34 0 34-34v-40" fill="none" stroke="#FFE7BD" stroke-width="3" stroke-linecap="round" class="flow-line"/>
    <g class="flower-spin"><ellipse cx="290" cy="162.2" rx="38.4" ry="58.4" transform="rotate(0 290 207)" fill="#ED7853"/><ellipse cx="290" cy="162.2" rx="38.4" ry="58.4" transform="rotate(45 290 207)" fill="#ED7853"/><ellipse cx="290" cy="162.2" rx="38.4" ry="58.4" transform="rotate(90 290 207)" fill="#ED7853"/><ellipse cx="290" cy="162.2" rx="38.4" ry="58.4" transform="rotate(135 290 207)" fill="#ED7853"/><ellipse cx="290" cy="162.2" rx="38.4" ry="58.4" transform="rotate(180 290 207)" fill="#ED7853"/><ellipse cx="290" cy="162.2" rx="38.4" ry="58.4" transform="rotate(225 290 207)" fill="#ED7853"/><ellipse cx="290" cy="162.2" rx="38.4" ry="58.4" transform="rotate(270 290 207)" fill="#ED7853"/><ellipse cx="290" cy="162.2" rx="38.4" ry="58.4" transform="rotate(315 290 207)" fill="#ED7853"/></g>
    <circle cx="290" cy="207" r="56" fill="#F6D991"/>
    <g class="face-eyes" fill="#4A3938"><ellipse cx="277" cy="203" rx="3.2" ry="5.3"/><ellipse cx="303" cy="203" rx="3.2" ry="5.3"/></g>
    <path d="M282 220q8 7 16 0" fill="none" stroke="#4A3938" stroke-width="2.8" stroke-linecap="round"/>
    <g class="orb-float"><circle cx="101" cy="350" r="46" fill="#F8F0DD"/><circle cx="101" cy="350" r="30" fill="none" stroke="#C7BAD9" stroke-width="2"/><circle cx="101" cy="350" r="20" fill="#9DBACA"/><path d="M94 350h14m-7-7v14" stroke="#F8F0DD" stroke-width="2" stroke-linecap="round"/></g>
    <g class="orb-float alt"><path d="M430 315c-36-4-51-24-43-49 24-1 44 18 43 49Z" fill="#4F796C"/><path d="M430 315c-5-39 11-61 34-57 8 25-9 49-34 57Z" fill="#8AA889"/><path d="m426 310-20-28m24 28 16-29" stroke="#E3E5CA" stroke-width="1.6" fill="none"/></g>
    <g transform="translate(431 91) rotate(13)"><circle r="38" fill="#F4E6C5"/><circle r="31" stroke="#C8B694" fill="none" stroke-width="1"/><path d="M-10 0h20M0-10v20" stroke="#A8815E" stroke-width="2" stroke-linecap="round"/><circle r="5" fill="#F4E6C5" stroke="#A8815E" stroke-width="1.5"/></g>
    <g class="sparkle" fill="#75628E"><path d="M108 112c0 15-6 21-21 21 15 0 21 6 21 21 0-15 6-21 21-21-15 0-21-6-21-21Z"/></g>
    <g class="sparkle alt" fill="#F8F0DD"><path d="M415 180c0 11-4 15-15 15 11 0 15 4 15 15 0-11 4-15 15-15-11 0-15-4-15-15Z"/></g>
    <circle cx="194" cy="66" r="6" fill="#ED7853"/><circle cx="475" cy="221" r="4" fill="#75628E"/><circle cx="202" cy="352" r="4" fill="#F6D991"/>
    <path d="M167 415q23-10 46 0t46 0t46 0t46 0" fill="none" stroke="#9C88B6" stroke-width="1.4"/>
    <path d="M170 424q23-10 46 0t46 0t46 0t46 0" fill="none" stroke="#9C88B6" stroke-width="1.4" opacity=".5"/>
  </svg>