<svg xmlns="http://www.w3.org/2000/svg" class="botanical-svg " viewBox="0 0 100 100" aria-hidden="true"><g class="botanical-symbol botanical-nori symbol-flower" data-symbol="nori"><path class="symbol-outline" d="M50 16C55 19 62 27 64 36C73 28 80 26 84 28C87 36 84 45 79 51C87 54 90 59 89 64C80 79 66 85 50 85C34 85 20 79 11 64C10 59 13 54 21 51C16 45 13 36 16 28C20 26 27 28 36 36C38 27 45 19 50 16Z" fill="#B5C9D0"/><path class="symbol-detail" d="M50 32v38m-23-22 23 22 23-22" stroke="#FFF0CB" stroke-width="3" fill="none" stroke-linecap="round"/></g></svg>