<svg xmlns="http://www.w3.org/2000/svg" class="friend-portrait " viewBox="0 0 160 190" aria-hidden="true"><g class="plant-character friend-nori mood-calm"><ellipse cx="80" cy="168" rx="61" ry="12" fill="#709E8D"/><path d="M19 168q27-31 62-8 28-25 60 3-22 29-59 10l-8-11Z" fill="#9EBF98"/><path d="M65 112q-18 29-5 45 14 14 39 0 9-17-9-45Z" fill="#88B6AC"/><g class="friend-arm"><path d="M100 136q3-25 24-31 5 25-24 31Z" fill="#93BFAE"/></g><g class="plant-head"><path d="M80 83Q45 52 80 19q34 32 0 64Z" transform="rotate(0 80 73)" fill="#BECEDB"/><path d="M80 83Q45 52 80 19q34 32 0 64Z" transform="rotate(51.42857142857143 80 73)" fill="#DBD9E8"/><path d="M80 83Q45 52 80 19q34 32 0 64Z" transform="rotate(102.85714285714286 80 73)" fill="#BECEDB"/><path d="M80 83Q45 52 80 19q34 32 0 64Z" transform="rotate(154.28571428571428 80 73)" fill="#DBD9E8"/><path d="M80 83Q45 52 80 19q34 32 0 64Z" transform="rotate(205.71428571428572 80 73)" fill="#BECEDB"/><path d="M80 83Q45 52 80 19q34 32 0 64Z" transform="rotate(257.14285714285717 80 73)" fill="#DBD9E8"/><path d="M80 83Q45 52 80 19q34 32 0 64Z" transform="rotate(308.57142857142856 80 73)" fill="#BECEDB"/><circle cx="80" cy="77" r="33" fill="#FFF0C7"/><g transform="translate(80 80) scale(0.86)" class="plant-face mood-calm"><g fill="#EC9B8A" opacity=".64"><ellipse cx="-22" cy="8" rx="8" ry="5"/><ellipse cx="22" cy="8" rx="8" ry="5"/></g><g class="plant-eyes"><g class="friend-blink" fill="#344B3C"><ellipse cx="-13" cy="-5" rx="4.5" ry="6.5"/><ellipse cx="13" cy="-5" rx="4.5" ry="6.5"/><g fill="#FFFCEB"><circle cx="-14.2" cy="-7.2" r="1.5"/><circle cx="11.8" cy="-7.2" r="1.5"/></g></g></g><g class="plant-joy-eyes" fill="none" stroke="#344B3C" stroke-width="3" stroke-linecap="round"><path d="M-18-3q5-7 10 0m16 0q5-7 10 0"/></g><g class="plant-sleep-eyes" fill="none" stroke="#344B3C" stroke-width="2.6" stroke-linecap="round"><path d="M-18-3q5 4 10 0m16 0q5 4 10 0"/></g><path d="M-6 12q6 7 12 0" fill="none" stroke="#344B3C" stroke-width="3" stroke-linecap="round"/></g></g></g></svg>