<svg xmlns="http://www.w3.org/2000/svg" class="" viewBox="0 0 220 220" aria-hidden="true"><circle cx="110" cy="106" r="89" fill="#E7DDD0"/><path d="M56 184v-63a52 52 0 0 1 104 0v63" fill="#C0B2DC"/><path d="M83 184v-62a25 25 0 0 1 50 0v62" fill="#F7F3EA"/><path d="M46 169h27q38 0 38-38V88" fill="none" stroke="#CC4833" stroke-width="11" stroke-linecap="round"/><ellipse cx="111" cy="62.64" rx="14.879999999999999" ry="22.63" transform="rotate(0 111 80)" fill="#CC4833"/><ellipse cx="111" cy="62.64" rx="14.879999999999999" ry="22.63" transform="rotate(72 111 80)" fill="#CC4833"/><ellipse cx="111" cy="62.64" rx="14.879999999999999" ry="22.63" transform="rotate(144 111 80)" fill="#CC4833"/><ellipse cx="111" cy="62.64" rx="14.879999999999999" ry="22.63" transform="rotate(216 111 80)" fill="#CC4833"/><ellipse cx="111" cy="62.64" rx="14.879999999999999" ry="22.63" transform="rotate(288 111 80)" fill="#CC4833"/><circle cx="111" cy="80" r="18" fill="#F6C9AE"/><g fill="#302D3B"><circle cx="106" cy="78" r="1.5"/><circle cx="116" cy="78" r="1.5"/></g><path d="M151 183c-2-29 14-43 32-42 0 23-14 37-32 42Z" fill="#CC4833"/><circle cx="48" cy="68" r="8" fill="#F6C9AE"/><path d="m175 63 3 10 10 3-10 3-3 10-3-10-10-3 10-3Z" fill="#CC4833"/><path d="M36 195h150" stroke="#756C7D" stroke-width="1"/></svg>