<svg xmlns="http://www.w3.org/2000/svg" viewBox="0 0 512 512"><rect width="512" height="512" rx="114" fill="#DFD7EC"/><g fill="#ED7853"><ellipse cx="256" cy="195" rx="54" ry="94"/><ellipse cx="256" cy="195" rx="54" ry="94" transform="rotate(45 256 256)"/><ellipse cx="256" cy="195" rx="54" ry="94" transform="rotate(90 256 256)"/><ellipse cx="256" cy="195" rx="54" ry="94" transform="rotate(135 256 256)"/><ellipse cx="256" cy="195" rx="54" ry="94" transform="rotate(180 256 256)"/><ellipse cx="256" cy="195" rx="54" ry="94" transform="rotate(225 256 256)"/><ellipse cx="256" cy="195" rx="54" ry="94" transform="rotate(270 256 256)"/><ellipse cx="256" cy="195" rx="54" ry="94" transform="rotate(315 256 256)"/></g><circle cx="256" cy="256" r="78" fill="#F6D991"/><g fill="#4A3938"><ellipse cx="237" cy="250" rx="5" ry="8"/><ellipse cx="275" cy="250" rx="5" ry="8"/></g><path d="M244 276q12 10 24 0" fill="none" stroke="#4A3938" stroke-width="4" stroke-linecap="round"/></svg>
